<mxfile host="app.diagrams.net" agent="Mozilla/5.0 (Macintosh; Intel Mac OS X 10_15_7) AppleWebKit/537.36 (KHTML, like Gecko) Chrome/131.0.0.0 Safari/537.36" version="25.0.3">
  <diagram name="Page-1" id="osYSkFIaf2AuOrQg4g7J">
    <mxGraphModel dx="487" dy="675" grid="1" gridSize="10" guides="1" tooltips="1" connect="1" arrows="1" fold="1" page="1" pageScale="1" pageWidth="850" pageHeight="1100" math="0" shadow="0">
      <root>
        <mxCell id="0" />
        <mxCell id="1" parent="0" />
        <mxCell id="xO-FhJ4BTDzz4xncyBEp-5" value="" style="edgeStyle=none;curved=1;rounded=0;orthogonalLoop=1;jettySize=auto;html=1;fontSize=12;startSize=8;endSize=8;" edge="1" parent="1" source="xO-FhJ4BTDzz4xncyBEp-1" target="xO-FhJ4BTDzz4xncyBEp-4">
          <mxGeometry relative="1" as="geometry" />
        </mxCell>
        <mxCell id="xO-FhJ4BTDzz4xncyBEp-1" value="Inicio" style="ellipse;whiteSpace=wrap;html=1;aspect=fixed;" vertex="1" parent="1">
          <mxGeometry x="230" y="30" width="80" height="80" as="geometry" />
        </mxCell>
        <mxCell id="xO-FhJ4BTDzz4xncyBEp-4" value="Definir tipo cambio EUR a MXN = 23,70&lt;div&gt;Definir tipo cambio USD a MXN = 20,75&lt;/div&gt;" style="whiteSpace=wrap;html=1;" vertex="1" parent="1">
          <mxGeometry x="160" y="190" width="220" height="100" as="geometry" />
        </mxCell>
        <mxCell id="xO-FhJ4BTDzz4xncyBEp-9" style="edgeStyle=none;curved=1;rounded=0;orthogonalLoop=1;jettySize=auto;html=1;exitX=0.5;exitY=1;exitDx=0;exitDy=0;entryX=0.5;entryY=0;entryDx=0;entryDy=0;fontSize=12;startSize=8;endSize=8;" edge="1" parent="1" source="xO-FhJ4BTDzz4xncyBEp-6" target="xO-FhJ4BTDzz4xncyBEp-8">
          <mxGeometry relative="1" as="geometry" />
        </mxCell>
        <mxCell id="xO-FhJ4BTDzz4xncyBEp-6" value="Mostrar mensaje: &quot;Ingrese la moneda de origen para conversión (EUR/USD): &quot;" style="shape=parallelogram;perimeter=parallelogramPerimeter;whiteSpace=wrap;html=1;fixedSize=1;" vertex="1" parent="1">
          <mxGeometry x="156.25" y="350" width="227.5" height="80" as="geometry" />
        </mxCell>
        <mxCell id="xO-FhJ4BTDzz4xncyBEp-7" style="edgeStyle=none;curved=1;rounded=0;orthogonalLoop=1;jettySize=auto;html=1;entryX=0.5;entryY=0;entryDx=0;entryDy=0;fontSize=12;startSize=8;endSize=8;" edge="1" parent="1" source="xO-FhJ4BTDzz4xncyBEp-4" target="xO-FhJ4BTDzz4xncyBEp-6">
          <mxGeometry relative="1" as="geometry" />
        </mxCell>
        <mxCell id="xO-FhJ4BTDzz4xncyBEp-11" value="" style="edgeStyle=none;curved=1;rounded=0;orthogonalLoop=1;jettySize=auto;html=1;fontSize=12;startSize=8;endSize=8;" edge="1" parent="1" source="xO-FhJ4BTDzz4xncyBEp-8" target="xO-FhJ4BTDzz4xncyBEp-10">
          <mxGeometry relative="1" as="geometry" />
        </mxCell>
        <mxCell id="xO-FhJ4BTDzz4xncyBEp-8" value="Mostrar mensaje: &quot;Ingrese monto a convertir: &quot;" style="shape=parallelogram;perimeter=parallelogramPerimeter;whiteSpace=wrap;html=1;fixedSize=1;" vertex="1" parent="1">
          <mxGeometry x="205" y="480" width="130" height="60" as="geometry" />
        </mxCell>
        <mxCell id="xO-FhJ4BTDzz4xncyBEp-15" value="" style="edgeStyle=none;curved=1;rounded=0;orthogonalLoop=1;jettySize=auto;html=1;fontSize=12;startSize=8;endSize=8;" edge="1" parent="1" source="xO-FhJ4BTDzz4xncyBEp-10" target="xO-FhJ4BTDzz4xncyBEp-14">
          <mxGeometry relative="1" as="geometry" />
        </mxCell>
        <mxCell id="xO-FhJ4BTDzz4xncyBEp-16" value="SI" style="edgeLabel;html=1;align=center;verticalAlign=middle;resizable=0;points=[];fontSize=12;" vertex="1" connectable="0" parent="xO-FhJ4BTDzz4xncyBEp-15">
          <mxGeometry x="-0.04" y="-2" relative="1" as="geometry">
            <mxPoint as="offset" />
          </mxGeometry>
        </mxCell>
        <mxCell id="xO-FhJ4BTDzz4xncyBEp-10" value="Tipo conversion = EUR" style="rhombus;whiteSpace=wrap;html=1;" vertex="1" parent="1">
          <mxGeometry x="230" y="650" width="80" height="80" as="geometry" />
        </mxCell>
        <mxCell id="xO-FhJ4BTDzz4xncyBEp-12" value="Mostrar mensaje: &quot;El resultado de la conversión de EUR a MXN es: &quot;, resultado" style="shape=parallelogram;perimeter=parallelogramPerimeter;whiteSpace=wrap;html=1;fixedSize=1;" vertex="1" parent="1">
          <mxGeometry x="630" y="660" width="210" height="60" as="geometry" />
        </mxCell>
        <mxCell id="xO-FhJ4BTDzz4xncyBEp-28" style="edgeStyle=none;curved=1;rounded=0;orthogonalLoop=1;jettySize=auto;html=1;exitX=1;exitY=0.5;exitDx=0;exitDy=0;entryX=0;entryY=0.5;entryDx=0;entryDy=0;fontSize=12;startSize=8;endSize=8;" edge="1" parent="1" source="xO-FhJ4BTDzz4xncyBEp-14" target="xO-FhJ4BTDzz4xncyBEp-12">
          <mxGeometry relative="1" as="geometry" />
        </mxCell>
        <mxCell id="xO-FhJ4BTDzz4xncyBEp-14" value="Calcular resultado = monto a convertir * tipo cambio EUR a MXN" style="whiteSpace=wrap;html=1;" vertex="1" parent="1">
          <mxGeometry x="410" y="660" width="120" height="60" as="geometry" />
        </mxCell>
        <mxCell id="xO-FhJ4BTDzz4xncyBEp-31" style="edgeStyle=none;curved=1;rounded=0;orthogonalLoop=1;jettySize=auto;html=1;exitX=1;exitY=0.5;exitDx=0;exitDy=0;fontSize=12;startSize=8;endSize=8;" edge="1" parent="1" source="xO-FhJ4BTDzz4xncyBEp-17" target="xO-FhJ4BTDzz4xncyBEp-21">
          <mxGeometry relative="1" as="geometry" />
        </mxCell>
        <mxCell id="xO-FhJ4BTDzz4xncyBEp-17" value="Calcular resultado = monto a convertir * tipo cambio USD a MXN" style="whiteSpace=wrap;html=1;" vertex="1" parent="1">
          <mxGeometry x="400" y="820" width="130" height="60" as="geometry" />
        </mxCell>
        <mxCell id="xO-FhJ4BTDzz4xncyBEp-40" style="edgeStyle=none;curved=1;rounded=0;orthogonalLoop=1;jettySize=auto;html=1;entryX=0;entryY=0.5;entryDx=0;entryDy=0;fontSize=12;startSize=8;endSize=8;" edge="1" parent="1" source="xO-FhJ4BTDzz4xncyBEp-21" target="xO-FhJ4BTDzz4xncyBEp-37">
          <mxGeometry relative="1" as="geometry" />
        </mxCell>
        <mxCell id="xO-FhJ4BTDzz4xncyBEp-21" value="Mostrar mensaje: &quot;&quot;El resultado de la conversión de USD&amp;nbsp; a MXN es: &quot;, resultado" style="shape=parallelogram;perimeter=parallelogramPerimeter;whiteSpace=wrap;html=1;fixedSize=1;" vertex="1" parent="1">
          <mxGeometry x="620" y="810" width="220" height="75" as="geometry" />
        </mxCell>
        <mxCell id="xO-FhJ4BTDzz4xncyBEp-29" style="edgeStyle=none;curved=1;rounded=0;orthogonalLoop=1;jettySize=auto;html=1;exitX=1;exitY=0.5;exitDx=0;exitDy=0;entryX=0;entryY=0.5;entryDx=0;entryDy=0;fontSize=12;startSize=8;endSize=8;" edge="1" parent="1" source="xO-FhJ4BTDzz4xncyBEp-25" target="xO-FhJ4BTDzz4xncyBEp-17">
          <mxGeometry relative="1" as="geometry" />
        </mxCell>
        <mxCell id="xO-FhJ4BTDzz4xncyBEp-30" value="SI" style="edgeLabel;html=1;align=center;verticalAlign=middle;resizable=0;points=[];fontSize=12;" vertex="1" connectable="0" parent="xO-FhJ4BTDzz4xncyBEp-29">
          <mxGeometry x="-0.1111" relative="1" as="geometry">
            <mxPoint as="offset" />
          </mxGeometry>
        </mxCell>
        <mxCell id="xO-FhJ4BTDzz4xncyBEp-34" style="edgeStyle=none;curved=1;rounded=0;orthogonalLoop=1;jettySize=auto;html=1;exitX=0.5;exitY=1;exitDx=0;exitDy=0;entryX=0.5;entryY=0;entryDx=0;entryDy=0;fontSize=12;startSize=8;endSize=8;" edge="1" parent="1" source="xO-FhJ4BTDzz4xncyBEp-25" target="xO-FhJ4BTDzz4xncyBEp-33">
          <mxGeometry relative="1" as="geometry" />
        </mxCell>
        <mxCell id="xO-FhJ4BTDzz4xncyBEp-35" value="NO" style="edgeLabel;html=1;align=center;verticalAlign=middle;resizable=0;points=[];fontSize=12;" vertex="1" connectable="0" parent="xO-FhJ4BTDzz4xncyBEp-34">
          <mxGeometry x="-0.2" y="1" relative="1" as="geometry">
            <mxPoint as="offset" />
          </mxGeometry>
        </mxCell>
        <mxCell id="xO-FhJ4BTDzz4xncyBEp-25" value="Tipo conversion = USD" style="rhombus;whiteSpace=wrap;html=1;" vertex="1" parent="1">
          <mxGeometry x="230" y="810" width="80" height="80" as="geometry" />
        </mxCell>
        <mxCell id="xO-FhJ4BTDzz4xncyBEp-26" style="edgeStyle=none;curved=1;rounded=0;orthogonalLoop=1;jettySize=auto;html=1;exitX=0.5;exitY=1;exitDx=0;exitDy=0;entryX=0.525;entryY=0.088;entryDx=0;entryDy=0;entryPerimeter=0;fontSize=12;startSize=8;endSize=8;" edge="1" parent="1" source="xO-FhJ4BTDzz4xncyBEp-10" target="xO-FhJ4BTDzz4xncyBEp-25">
          <mxGeometry relative="1" as="geometry" />
        </mxCell>
        <mxCell id="xO-FhJ4BTDzz4xncyBEp-27" value="NO" style="edgeLabel;html=1;align=center;verticalAlign=middle;resizable=0;points=[];fontSize=12;" vertex="1" connectable="0" parent="xO-FhJ4BTDzz4xncyBEp-26">
          <mxGeometry x="-0.2343" relative="1" as="geometry">
            <mxPoint as="offset" />
          </mxGeometry>
        </mxCell>
        <mxCell id="xO-FhJ4BTDzz4xncyBEp-38" value="" style="edgeStyle=none;curved=1;rounded=0;orthogonalLoop=1;jettySize=auto;html=1;fontSize=12;startSize=8;endSize=8;" edge="1" parent="1" source="xO-FhJ4BTDzz4xncyBEp-33" target="xO-FhJ4BTDzz4xncyBEp-37">
          <mxGeometry relative="1" as="geometry" />
        </mxCell>
        <mxCell id="xO-FhJ4BTDzz4xncyBEp-33" value="Mostrar mensaje: &quot;No está disponible este tipo de conversión actualmente.&quot;" style="shape=parallelogram;perimeter=parallelogramPerimeter;whiteSpace=wrap;html=1;fixedSize=1;" vertex="1" parent="1">
          <mxGeometry x="182.5" y="950" width="175" height="60" as="geometry" />
        </mxCell>
        <mxCell id="xO-FhJ4BTDzz4xncyBEp-37" value="FIN" style="ellipse;whiteSpace=wrap;html=1;" vertex="1" parent="1">
          <mxGeometry x="950" y="940" width="80" height="80" as="geometry" />
        </mxCell>
        <mxCell id="xO-FhJ4BTDzz4xncyBEp-41" style="edgeStyle=none;curved=1;rounded=0;orthogonalLoop=1;jettySize=auto;html=1;entryX=0.6;entryY=0.013;entryDx=0;entryDy=0;entryPerimeter=0;fontSize=12;startSize=8;endSize=8;exitX=1;exitY=0.5;exitDx=0;exitDy=0;" edge="1" parent="1" source="xO-FhJ4BTDzz4xncyBEp-12" target="xO-FhJ4BTDzz4xncyBEp-37">
          <mxGeometry relative="1" as="geometry">
            <Array as="points">
              <mxPoint x="930" y="700" />
              <mxPoint x="1020" y="680" />
            </Array>
          </mxGeometry>
        </mxCell>
      </root>
    </mxGraphModel>
  </diagram>
</mxfile>
